PathFileType	4	(X/Y/Z)	D:\TRACE\v60_Jaco2_6-2-23\JustArmDRS_Motion3_2-platform.trc
DataRate	CameraRate	NumFrames	NumMarkers	Units	OrigDataRate	OrigDataStartFrame	OrigNumFrames
100.00	100.00	      62	5	mm	100.00	876	      7000
Frame#	Time	Left_Front			Right_Front			Left_Aft			Right_Aft			Post			
		X1	Y1	Z1	X2	Y2	Z2	X3	Y3	Z3	X4	Y4	Z4	X5	Y5	Z5	

876	8.750	-760.48938	-2.22931	-653.63965	810.22174	-3.52564	-630.62317	-691.77771	18.93576	480.42029	722.85779	18.19930	586.17554	35.65232	1290.00415	-988.85577	
877	8.760	-760.71533	-1.65467	-653.34705	810.23303	-3.26366	-630.83685	-691.93085	18.60443	480.43301	722.62408	17.91258	586.26007	35.52209	1290.49670	-987.98523	
878	8.770	-760.85541	-1.43226	-653.27594	809.70575	-2.68532	-630.46497	-692.12122	18.32438	480.54059	722.45087	17.52689	586.39685	35.35731	1291.06958	-987.21613	
879	8.780	-760.98181	-1.26292	-653.17108	809.50110	-2.32989	-630.42188	-692.32611	18.04919	480.67416	722.18829	17.25126	586.55017	35.28921	1291.78479	-986.46478	
880	8.790	-761.14172	-0.81353	-653.05957	809.39923	-1.94277	-630.26978	-692.57721	17.66923	480.72726	721.87280	16.70528	586.62781	35.02007	1292.33716	-985.85413	
881	8.800	-760.86230	-0.40323	-652.46851	809.12994	-1.53865	-630.24188	-692.66876	17.41743	480.85617	721.82538	16.48135	586.84686	34.67325	1292.88672	-984.93671	
882	8.810	-761.40826	0.46256	-652.90784	808.89130	-1.11919	-630.10004	-692.76129	17.19729	480.90930	721.62177	16.30098	586.89923	34.53299	1293.65051	-984.23999	
883	8.820	-761.78613	0.98599	-652.69934	808.73199	-0.80328	-630.08704	-692.96973	16.88628	481.14990	721.40588	15.92192	586.95966	34.39443	1294.33813	-983.24744	
884	8.830	-762.45801	1.51741	-652.16528	808.62006	-0.38156	-629.99304	-693.21783	16.48174	481.38214	721.28516	15.73580	587.25397	34.33974	1294.73242	-982.17755	
885	8.840	-762.63776	1.74252	-652.02985	808.51166	0.03444	-629.84912	-693.46002	16.20701	481.50092	721.20740	15.38950	587.33179	33.91841	1295.33630	-981.20020	
886	8.850	-762.46710	1.85393	-652.30090	808.41656	0.37867	-629.70551	-693.63629	15.96988	481.50974	721.23102	14.96234	587.34332	33.77753	1295.88379	-980.30396	
887	8.860	-762.53137	2.19915	-652.20734	808.21301	0.88335	-629.55157	-693.74225	15.79310	481.57144	720.91620	14.61924	587.29199	33.83210	1296.61755	-979.24780	
888	8.870	-762.49573	2.49993	-652.00488	808.09283	1.31648	-629.52039	-693.85730	15.58089	481.72867	720.52289	14.14759	587.35059	33.60798	1297.13928	-978.13770	
889	8.880	-762.56018	2.98822	-651.87329	808.01129	1.68540	-629.47687	-694.00317	15.39586	481.74420	720.35162	13.80792	587.51404	33.13008	1297.83887	-977.33496	
890	8.890	-762.72687	3.42754	-651.91187	807.84802	2.04214	-629.36127	-694.23297	15.09364	481.77194	720.20538	13.52204	587.62860	32.99637	1298.54016	-976.59363	
891	8.900	-762.88953	3.93749	-651.87817	807.58136	2.47791	-629.28833	-694.41211	14.78960	481.85733	720.17719	13.31233	587.72021	33.03071	1299.17346	-975.77356	
892	8.910	-763.18665	4.62185	-652.03473	807.37555	2.91427	-629.23413	-694.58923	14.40864	482.02725	719.93872	13.03266	587.73590	32.90111	1299.61694	-974.92737	
893	8.920	-763.21167	4.94784	-652.11456	807.32910	3.37627	-629.03448	-694.68781	14.00882	482.17767	719.67065	12.60003	587.80243	32.97192	1300.37317	-974.03113	
894	8.930	-763.27185	5.27684	-652.09711	807.31995	3.73513	-628.91736	-694.71930	13.76915	482.20682	719.53534	12.36196	588.18054	32.73614	1301.05017	-973.38263	
895	8.940	-763.53583	5.77077	-651.81903	807.15167	4.12495	-628.86310	-694.80231	13.50565	482.30518	719.72021	11.89950	588.23376	32.40363	1301.67468	-972.64215	
896	8.950	-763.75555	6.23147	-651.69415	806.89478	4.60879	-628.78143	-694.97833	13.25755	482.38745	719.50317	11.52966	588.20526	32.32948	1302.43201	-971.66907	
897	8.960	-763.97229	6.53968	-651.44745	806.76685	5.07833	-628.66235	-695.20563	13.03169	482.44775	719.41718	11.26458	588.25854	32.19101	1302.85547	-970.62531	
898	8.970	-764.04669	6.90668	-651.10486	806.66016	5.48772	-628.51263	-695.44928	12.65979	482.65982	719.18408	10.85890	588.25159	31.94277	1303.45532	-969.57654	
899	8.980	-764.15240	7.34713	-651.01788	806.54559	5.81206	-628.45825	-695.56030	12.41198	482.77783	719.02686	10.62042	588.47314	31.66706	1304.17737	-968.64069	
900	8.990	-764.38409	7.78562	-651.29321	806.44940	6.05382	-628.80194	-695.60333	12.17989	482.91479	718.86786	10.14076	588.53540	31.76036	1304.69775	-967.55890	
901	9.000	-764.35590	8.15380	-651.21368	806.22565	6.60964	-628.38971	-695.85059	12.22861	483.00623	718.81915	9.74160	588.62610	31.67329	1305.21521	-966.32684	
902	9.010	-764.37079	8.62036	-651.04285	806.18341	7.05005	-628.15826	-695.87762	11.94031	483.07346	718.77838	9.35557	588.81879	31.39720	1305.95496	-965.55011	
903	9.020	-764.43188	9.19858	-650.89783	806.12604	7.47890	-628.03284	-695.89380	11.49905	483.17044	718.68738	9.12071	588.93542	31.36989	1306.57959	-964.71265	
904	9.030	-764.55109	9.60826	-650.74646	805.97571	7.77239	-628.07990	-696.09357	11.10101	483.24084	718.51526	8.81523	589.01166	31.49094	1307.14600	-963.81604	
905	9.040	-764.90997	9.86613	-650.42383	806.00165	8.15870	-628.00519	-696.25714	10.82223	483.24930	718.38770	8.49711	589.09485	31.44120	1307.64038	-962.91583	
906	9.050	-764.75146	10.26273	-650.79230	805.85364	8.66632	-627.88361	-696.34149	10.61578	483.30307	718.36694	8.25671	589.12219	31.22702	1308.25525	-962.24994	
907	9.060	-764.67865	10.40716	-650.58246	805.60120	9.17699	-627.68750	-696.36322	10.33361	483.49438	718.45929	8.00064	589.20636	30.99868	1308.88440	-961.65387	
908	9.070	-764.69946	11.00148	-650.38342	805.51898	9.44883	-627.66498	-696.35193	10.06905	483.56073	718.42755	7.67544	589.43738	30.96048	1309.51526	-960.88165	
909	9.080	-764.79437	11.39266	-650.15875	805.62799	9.85297	-627.63623	-696.26746	9.71611	483.65982	718.31152	7.29418	589.52191	31.05832	1310.15869	-960.01007	
910	9.090	-764.82507	11.65438	-650.09979	805.58954	10.27193	-627.59277	-696.23651	9.41436	483.75464	718.26984	6.71799	589.50525	31.24044	1310.71484	-959.06110	
911	9.100	-764.94458	11.71487	-650.19708	805.51581	10.61694	-627.54633	-696.19415	9.17884	483.83255	718.29126	6.36159	589.62872	30.84852	1311.09851	-958.34821	
912	9.110	-765.08270	12.55991	-649.92499	805.45764	10.87401	-627.46796	-696.28137	9.01844	483.87387	718.31232	6.15605	589.70490	30.70564	1311.64429	-957.53583	
913	9.120	-764.99023	12.97521	-649.92346	805.37927	11.35188	-627.30646	-696.38141	8.77398	484.05905	718.24054	6.00183	589.76898	30.93557	1312.45349	-956.43073	
914	9.130	-764.96826	13.58515	-649.92468	805.48077	11.67716	-627.17053	-696.46246	8.47279	484.14398	718.18268	5.89404	589.82886	30.96762	1312.76685	-955.53271	
915	9.140	-764.68530	13.85838	-649.52625	805.45447	11.99227	-627.03424	-696.46283	8.14751	484.31088	718.08270	5.77789	589.90991	30.74684	1313.13440	-954.87598	
916	9.150	-764.75702	14.12742	-649.51624	805.41528	12.38879	-626.90198	-696.46149	7.89198	484.38422	718.10657	5.40722	590.08014	30.21656	1313.62219	-953.49963	
917	9.160	-764.79309	14.37357	-649.47711	805.45392	12.71815	-626.89996	-696.37311	7.55611	484.41727	718.17413	4.86808	590.28375	30.31649	1314.29163	-952.69513	
918	9.170	-764.91168	14.65307	-649.39722	805.41736	13.19859	-626.89490	-696.39050	7.35086	484.48407	718.01532	4.40965	590.34900	30.41677	1314.90149	-951.91864	
919	9.180	-764.90112	14.87600	-649.40607	805.33459	13.63896	-626.83197	-696.40668	7.09019	484.53812	717.89294	4.01552	590.38208	30.42075	1315.42810	-951.24493	
920	9.190	-764.89941	15.15982	-649.25110	805.39508	13.89730	-626.75757	-696.45447	6.86729	484.67072	717.90137	3.81814	590.39337	30.45723	1315.62451	-950.79797	
921	9.200	-764.91406	15.52456	-649.08429	805.29047	14.18098	-626.69019	-696.51190	6.67147	484.75577	717.95404	3.61951	590.44958	30.43814	1316.15259	-949.92938	
922	9.210	-764.66730	16.10334	-648.67004	805.26544	14.52887	-626.50439	-696.45630	6.46000	484.83896	718.01123	3.39409	590.49823	30.38554	1316.97375	-948.82916	
923	9.220	-764.78046	16.58605	-648.72833	805.23914	14.86371	-626.46246	-696.42261	6.24949	484.89856	717.98224	3.13304	590.54773	30.46632	1317.49536	-948.39258	
924	9.230	-764.84589	17.04149	-648.90747	805.13403	15.12471	-626.30212	-696.36169	6.02372	484.94180	718.04987	2.85915	590.71539	30.40209	1317.83911	-947.88818	
925	9.240	-764.79199	17.20839	-648.92456	805.37341	15.38906	-626.25134	-696.40662	5.76704	484.97961	718.10468	2.65210	590.87152	30.56519	1318.28064	-947.24438	
926	9.250	-764.93805	17.34321	-648.85876	805.38507	15.74407	-626.14227	-696.46295	5.61752	485.04617	718.20203	2.31790	591.01642	30.70461	1318.79077	-946.51263	
927	9.260	-765.01062	17.71533	-648.78461	805.36420	16.06664	-626.15887	-696.47638	5.42057	485.12531	718.11853	1.99826	591.13403	30.75634	1319.39319	-945.62921	
928	9.270	-765.00006	18.11882	-648.64221	805.42426	16.47832	-626.11206	-696.49170	5.16957	485.19568	718.05011	1.64647	591.15735	30.29140	1319.75830	-944.72906	
929	9.280	-764.91772	18.42289	-648.42188	805.50732	16.83404	-626.02869	-696.44714	4.92543	485.20694	717.97351	1.39192	591.04742	30.32053	1320.31970	-944.10870	
930	9.290	-764.57678	18.80986	-648.21893	805.56244	17.19057	-625.93066	-696.36810	4.72015	485.19272	717.95679	1.22577	591.01172	30.44248	1320.68420	-943.40253	
931	9.300	-764.51318	18.96587	-648.17780	805.64349	17.52901	-625.84344	-696.04871	4.34941	485.37704	717.91736	0.91887	591.35461	30.81249	1320.89087	-942.56769	
932	9.310	-764.45380	19.22042	-648.34888	805.64825	17.76895	-625.84644	-696.24951	4.24580	485.40115	718.00891	0.75785	591.41974	30.98082	1321.50403	-941.93567	
933	9.320	-764.44226	19.46505	-648.39105	805.65973	17.96562	-625.74951	-696.18054	4.08454	485.51758	718.13806	0.54556	591.55530	30.91539	1322.07532	-941.53796	
934	9.330	-764.43536	19.76119	-648.29413	805.77637	18.18575	-625.57550	-695.98022	3.81900	485.62115	718.55255	0.21881	591.50940	31.13172	1322.50232	-940.66882	
935	9.340	-764.28595	20.04091	-648.15802	805.92078	18.44085	-625.51434	-695.88281	3.59683	485.74490	718.68304	-0.00421	591.51624	31.07814	1322.81860	-940.07214	
936	9.350	-764.24658	20.47181	-648.00232	805.99731	18.64255	-625.44470	-695.76996	3.43217	485.76416	718.68707	-0.14284	591.53381	31.23355	1323.25476	-939.29797	
937	9.360	-764.24164	20.73365	-647.86609	806.19427	18.62736	-625.73450	-695.67767	3.27433	485.88953	718.60797	-0.40400	591.56506	31.18989	1323.66724	-938.83337	
